<svg xmlns="http://www.w3.org/2000/svg" viewBox="0 0 1080 1080">
<circle cx="539" cy="539" r="494" fill="#0c0c11"/>
<g fill="#fafafb" transform="matrix(0.1,0,0,-0.1,45,1034)">
<path d="M3200 8315 c-504 -74 -939 -393 -1170 -860 -143 -288 -185 -507 -178
-920 3 -202 4 -213 28 -260 17 -31 44 -62 75 -85 l49 -35 116 0 c106 0 118 2
157 26 40 24 89 81 108 124 4 11 11 151 16 310 7 280 8 293 37 390 53 183 132
323 254 451 121 128 287 231 448 279 137 40 118 40 1810 40 1835 0 1725 5
1921 -80 277 -121 491 -361 583 -657 40 -130 46 -182 46 -419 0 -119 5 -241
10 -270 12 -65 51 -123 109 -164 42 -29 46 -30 159 -30 116 0 117 0 164 33 26
18 60 54 75 80 l28 47 3 240 c5 330 -17 503 -92 710 -169 466 -507 810 -961
978 -98 36 -183 57 -300 73 -140 19 -3365 18 -3495 -1z"/>
<path d="M1990 3995 c-99 -45 -140 -131 -140 -293 0 -120 21 -313 44 -412 52
-222 174 -462 327 -646 233 -280 543 -466 894 -537 l110 -22 6 -175 c4 -96 7
-194 8 -216 2 -65 65 -153 135 -188 48 -25 65 -28 123 -24 48 2 83 11 118 29
59 30 236 127 425 231 74 41 171 94 215 118 44 24 116 63 160 88 44 25 109 61
145 80 36 19 69 39 75 43 5 5 450 9 988 9 1029 0 1074 2 1252 46 182 46 384
145 550 271 68 51 265 240 265 253 0 4 12 20 26 36 70 79 192 299 244 442 59
164 89 351 90 556 0 149 -10 190 -59 247 -53 63 -97 79 -216 79 -143 0 -193
-27 -245 -128 -20 -38 -24 -66 -31 -225 -6 -157 -12 -196 -37 -282 -77 -264
-255 -490 -493 -628 -62 -35 -207 -93 -272 -108 -38 -9 -329 -14 -1072 -18
l-1020 -6 -75 -38 c-81 -42 -137 -72 -215 -116 -85 -48 -527 -292 -583 -323
-29 -15 -57 -28 -63 -28 -5 0 -9 59 -9 138 0 171 -14 226 -73 289 -48 50 -129
83 -202 83 -197 0 -426 88 -600 230 -162 132 -283 315 -346 523 -28 92 -32
121 -39 289 -7 184 -8 189 -36 235 -16 26 -50 61 -74 78 -42 28 -51 30 -155
33 -83 2 -119 -2 -145 -13z"/>
</g>
<g fill="#fafafb" transform="matrix(0.1,0,0,-0.1,383,691)">
<path d="M555 2991 c-95 -29 -176 -67 -235 -109 -390 -284 -429 -836 -82
-1169 118 -114 277 -186 439 -199 l83 -7 0 -753 0 -754 209 0 c181 0 210 2
215 16 3 9 6 591 6 1295 l0 1279 199 0 c110 0 206 -3 215 -6 14 -6 16 -129 16
-1295 l0 -1289 213 2 212 3 3 1293 2 1292 215 0 215 0 0 215 0 215 -917 -1
-918 -1 -90 -27z"/>
<path d="M3024 1648 c-144 -129 -218 -194 -284 -248 -36 -30 -72 -61 -80 -70
-8 -8 -49 -44 -90 -80 -41 -36 -81 -72 -90 -80 -9 -8 -63 -55 -119 -105 l-103
-89 54 -51 c30 -27 101 -90 158 -140 57 -49 129 -112 160 -140 305 -271 475
-415 489 -415 8 0 11 213 11 745 0 598 -3 745 -13 745 -7 0 -49 -33 -93 -72z"/>
</g>
</svg>